<svg width="1200" height="880" viewBox="0 0 1200 880" fill="none" xmlns="http://www.w3.org/2000/svg">
  <rect width="1200" height="880" rx="48" fill="#081019"/>
  <rect x="44" y="44" width="1112" height="792" rx="34" fill="#0E1722" stroke="rgba(255,255,255,0.12)"/>
  <text x="90" y="120" fill="#F3F7FB" font-family="Arial, sans-serif" font-size="40" font-weight="700">Benchmark matrix</text>
  <text x="90" y="158" fill="#7F8B9A" font-family="Arial, sans-serif" font-size="18">Observed compression performance across prompt classes</text>
  <rect x="90" y="204" width="660" height="290" rx="28" fill="#121E2A"/>
  <rect x="792" y="204" width="274" height="290" rx="28" fill="#121E2A"/>
  <rect x="90" y="534" width="466" height="238" rx="28" fill="#121E2A"/>
  <rect x="590" y="534" width="476" height="238" rx="28" fill="#121E2A"/>
  <path d="M128 436H712" stroke="rgba(255,255,255,0.08)" stroke-width="2"/>
  <path d="M128 362H712" stroke="rgba(255,255,255,0.08)" stroke-width="2"/>
  <path d="M128 288H712" stroke="rgba(255,255,255,0.08)" stroke-width="2"/>
  <path d="M128 436V246" stroke="rgba(255,255,255,0.08)" stroke-width="2"/>
  <path d="M128 414C186 396 204 374 252 360C304 344 334 334 388 304C428 282 460 290 522 272C566 260 606 254 704 236" stroke="url(#paint0_linear_1_2)" stroke-width="8" stroke-linecap="round"/>
  <path d="M128 404C190 386 222 388 276 378C330 368 362 358 416 334C462 312 498 300 548 292C602 282 646 282 704 278" stroke="#64F0D0" stroke-width="8" stroke-linecap="round" stroke-dasharray="1 22"/>
  <circle cx="704" cy="236" r="10" fill="#FFBA66"/>
  <circle cx="704" cy="278" r="10" fill="#64F0D0"/>
  <text x="124" y="246" fill="#F3F7FB" font-family="Arial, sans-serif" font-size="22" font-weight="700">Compression vs fidelity</text>
  <text x="124" y="274" fill="#7F8B9A" font-family="Arial, sans-serif" font-size="16">Higher is better</text>
  <text x="820" y="246" fill="#F3F7FB" font-family="Arial, sans-serif" font-size="22" font-weight="700">Prompt cohorts</text>
  <rect x="824" y="284" width="208" height="34" rx="17" fill="rgba(100,240,208,0.12)"/>
  <text x="844" y="307" fill="#64F0D0" font-family="Arial, sans-serif" font-size="15" font-weight="700">System prompts</text>
  <rect x="824" y="336" width="228" height="34" rx="17" fill="rgba(44,107,255,0.16)"/>
  <text x="844" y="359" fill="#A9C4FF" font-family="Arial, sans-serif" font-size="15" font-weight="700">Support playbooks</text>
  <rect x="824" y="388" width="194" height="34" rx="17" fill="rgba(255,186,102,0.14)"/>
  <text x="844" y="411" fill="#FFD39A" font-family="Arial, sans-serif" font-size="15" font-weight="700">API references</text>
  <rect x="824" y="440" width="224" height="34" rx="17" fill="rgba(255,255,255,0.08)"/>
  <text x="844" y="463" fill="#E5EDF5" font-family="Arial, sans-serif" font-size="15" font-weight="700">Code-heavy instructions</text>
  <text x="124" y="576" fill="#F3F7FB" font-family="Arial, sans-serif" font-size="22" font-weight="700">Latency distribution</text>
  <rect x="124" y="620" width="42" height="108" rx="16" fill="#1B2B3A"/>
  <rect x="186" y="590" width="42" height="138" rx="16" fill="#27405A"/>
  <rect x="248" y="568" width="42" height="160" rx="16" fill="#2D5E9A"/>
  <rect x="310" y="534" width="42" height="194" rx="16" fill="#64F0D0"/>
  <rect x="372" y="586" width="42" height="142" rx="16" fill="#FFBA66"/>
  <text x="620" y="576" fill="#F3F7FB" font-family="Arial, sans-serif" font-size="22" font-weight="700">Top observed runs</text>
  <rect x="620" y="614" width="414" height="40" rx="20" fill="#101925"/>
  <rect x="620" y="674" width="364" height="40" rx="20" fill="#101925"/>
  <rect x="620" y="734" width="332" height="40" rx="20" fill="#101925"/>
  <rect x="620" y="614" width="394" height="40" rx="20" fill="url(#paint1_linear_1_2)" fill-opacity="0.7"/>
  <rect x="620" y="674" width="346" height="40" rx="20" fill="url(#paint1_linear_1_2)" fill-opacity="0.52"/>
  <rect x="620" y="734" width="314" height="40" rx="20" fill="url(#paint1_linear_1_2)" fill-opacity="0.36"/>
  <text x="640" y="640" fill="#091018" font-family="Arial, sans-serif" font-size="16" font-weight="700">Orbit support agent · 87% compression · 98% fidelity</text>
  <text x="640" y="700" fill="#DCE6F0" font-family="Arial, sans-serif" font-size="16" font-weight="700">Code migration brief · 82% compression · 97% fidelity</text>
  <text x="640" y="760" fill="#DCE6F0" font-family="Arial, sans-serif" font-size="16" font-weight="700">Repetitive stress prompt · 97% compression · 96% fidelity</text>
  <defs>
    <linearGradient id="paint0_linear_1_2" x1="128" y1="236" x2="704" y2="236" gradientUnits="userSpaceOnUse">
      <stop stop-color="#64F0D0"/>
      <stop offset="0.55" stop-color="#2C6BFF"/>
      <stop offset="1" stop-color="#FFBA66"/>
    </linearGradient>
    <linearGradient id="paint1_linear_1_2" x1="620" y1="634" x2="1034" y2="634" gradientUnits="userSpaceOnUse">
      <stop stop-color="#64F0D0"/>
      <stop offset="1" stop-color="#FFBA66"/>
    </linearGradient>
  </defs>
</svg>
